<svg version="1.2" xmlns="http://www.w3.org/2000/svg" viewBox="0 0 256 250" width="256" height="250">
	<title>lain-svg</title>
	<style>
		.s0 { fill: #000000 } 
	</style>
	<g id="Layer">
		<path id="Layer" fill-rule="evenodd" class="s0" d="m0 0h256v15.8c0 14.5-0.1 15.8-0.4 14.9-3.1-8-4.7-11.4-7.6-15.7-1.4-2-4.2-5.5-5.2-6.4-0.1-0.1-0.8-0.7-1.5-1.3-1.1-1-1.1-0.9 0.3 0.5 5.7 6.2 9.9 13.4 13.2 23.1l1.2 3.3v215.8h-256zm149.2 20.5c0 0.2 1.1 1 1.5 1 0 0-0.2-0.3-0.5-0.6-0.5-0.6-1-0.8-1-0.4zm-0.4 0.4c0.2 0.5 3.5 3.4 3.8 3.4 0.5 0-0.3-1-1.9-2.3-1.5-1.1-2.1-1.5-1.9-1.1zm-0.9 0.4c-0.3 0-1.6 2.1-1.6 2.5 0 0.2-0.5 1-1.1 1.9-1 1.5-4.5 8.1-4.3 8.1 0.1 0 0.5-0.7 0.9-1.5 0.5-0.8 1.7-3 2.8-4.9 1.3-2.1 2-3.6 1.9-3.8-0.1-0.4-0.1-0.4 0.2-0.1q0.2 0.4 0.2 0.1c0-0.6 0.1-0.7 0.6-1.5 0.3-0.5 0.4-0.8 0.4-0.8zm0.7 0.2c-0.1 0-0.9 1.1-1.7 2.4-0.7 1.4-1.9 3.4-2.6 4.6-0.7 1.2-2.3 4.2-3.6 6.6-1.3 2.4-2.5 4.4-2.6 4.3-0.1-0.2-0.1-0.1 0 0.1 0.2 0.4-1.1 3.3-1.5 3.1-0.1-0.1-0.2 0 0 0.2 0.2 0.3-0.9 2.8-1.2 2.6-0.2-0.1-1.3 2.2-2.5 5.3l-0.5 1.3 1.7 0.9c1.9 1.1 2.9 1.8 2.9 2.3 0 0.2 0.4 0.7 0.9 1.2 0.5 0.5 0.7 0.9 0.6 0.9-0.1 0-1.6-0.6-3.4-1.4-1.7-0.7-3.2-1.3-3.4-1.3-0.2 0-0.5 0.2-0.6 0.4-0.2 0.2-0.3 0.3-0.3 0.2 0-0.2 0.1-0.4 0.3-0.6 0.2-0.2-0.5-0.5-2.6-1.2-1.6-0.5-2.9-0.8-2.9-0.8-0.1 0.1-0.6 1-1.1 2l-1.1 2-0.1-1.3c-0.1-0.8-0.2-1.9-0.2-2.5l-0.1-1.1-1.5-0.4c-0.9-0.3-1.7-0.5-1.9-0.5-0.3 0-1 1.2-2.1 3.3-1.6 3.2-1.6 3.2-1.1 3.8 0.5 0.5 0.5 0.5-0.1 0.1-0.3-0.2-0.6-0.4-0.7-0.3q-0.2 0.2-0.1-0.1c0.1-0.1-1.2-1.7-3.3-3.7l-3.5-3.4-0.5 0.7c-0.3 0.4-1.1 0.8-3.1 1.4-3.6 1-6.1 2-6.5 2.4-0.6 0.7-0.6 0.1 0.1-3.2 0.1-0.3 0.2-1.1 0.2-1.7 0.2-1.1 0.1-1.1-0.1-0.6-1.3 2.6-2.9 6.3-3.5 8-0.7 2-0.7 2-0.2 2.4 0.3 0.2-0.2 0.1-1.1-0.2-1.6-0.6-1.8-0.6-3.1-0.4-0.8 0.2-1.8 0.5-2.3 0.7-1 0.4-1.2 0.3-1.4-0.7-0.1-0.4-0.3-0.7-0.4-0.7-0.1 0-0.7 2.1-1.3 4.6-0.7 2.6-1.4 5.1-1.6 5.6l-0.4 0.9-0.1-1.3q-0.5-3.1-0.8-0.9c0 0.4-0.4 1.6-0.8 2.8-1.5 5.1-3.5 13.3-4.5 18.8-0.4 2.4-0.9 4.9-1 5.6-0.5 2.5-0.2 17.3 0.5 20.2 1.3 5.8 2 7.5 4.3 11.5l0.7 1.1-0.8-0.6-0.6-0.6 0.2 0.7c0.2 0.3 1.3 2.7 2.7 5.2 1.3 2.5 2.3 4.6 2.3 4.7-0.1 0.1 0.1 0.3 0.4 0.5 0.3 0.1 0.5 0.4 0.5 0.6 0 0.9 8.3 10.9 12.2 14.9 4.1 4.2 11.6 10.5 12.1 10.2 0.2-0.1 1.2 0.5 2.4 1.2 4.2 2.7 8.4 4.1 14 4.6 1.6 0.2 4.8 0.5 7.1 0.6 4.6 0.4 15.6 0.5 17.8 0.2 0.8-0.1 2.6-0.4 4.1-0.5 5.3-0.6 13.2-2.4 16.7-3.7 5.9-2.3 13.7-6.9 17.7-10.4 1.1-1.1 2.9-2.8 3.9-3.9 0.9-1.1 1.7-2 1.8-2 0.1 0.1-0.4 0.9-1 1.8-1 1.5-1 1.5-0.3 0.8 1.1-1 1.6-2 2.7-5 0.4-1.4 0.8-2.7 0.9-2.9 0.1-0.2 0-0.3-0.1-0.2-0.5 0.3-0.7-2.4-0.3-3.4 0.3-0.5 0.6-0.9 0.7-0.8 0.3 0.2 1.2-0.9 1.5-1.9 0.2-0.6 0.3-1 0.3-1.1-0.1-0.1-0.3 0.3-0.5 0.9-0.2 0.6-0.3 1-0.4 0.9-0.2-0.2 0.7-2.4 0.9-2.3 0.2 0.1 0.2 0 0.1-0.2 0-0.2 1.3-4 3-8.6 1.8-4.8 3.1-8.6 3.1-9 0-0.5 0.1-0.8 0.2-0.7 0.2 0.1 0.3-0.1 0.2-0.4 0-0.4 0.5-2.3 1.2-4.4 0.6-2 1.1-3.7 1-3.8 0 0-0.2 0.3-0.5 0.7-0.2 0.5-0.5 0.7-0.7 0.6q-0.2-0.2-0.1 0.2c0.1 0.2 0 0.4-0.3 0.4-0.2 0-0.3-0.2-0.1-0.7 0.1-0.3 0.2-1.1 0.2-1.7 0.1-0.7 0.2-1.6 0.3-2l0.1-0.9-0.6 0.7c-0.4 0.4-0.9 1.3-1.3 2-0.3 0.6-0.7 1.1-0.9 1.2-0.3 0-0.3-0.1-0.1-0.3 0.2-0.2 0.2-0.5 0.1-0.7-0.1-0.2-0.4-1.1-0.5-1.9-0.2-0.8-0.6-1.8-0.8-2.1-0.2-0.4-0.8-1.5-1.3-2.6-1.4-2.9-1.6-3.2-2.7-3.2-0.5 0.1-0.9 0.1-0.9 0.2 0 0.1-0.2 0.3-0.5 0.4l-0.6 0.1 0.5-0.4c0.3-0.3 1-1.7 1.8-3.7 0.6-1.8 1.3-3.6 1.4-3.9 0.2-0.4 0.3-0.8 0.2-0.8-0.1-0.1-0.8 1.6-1.6 3.8-0.8 2.1-1.6 4-1.7 4.2-0.2 0.1 0-0.6 0.4-1.6 0.4-1 0.6-1.9 0.5-2.1q-0.2-0.3 0.1-0.1c0.3 0.2 0.3 0.1 0.2-0.4-0.2-0.4-0.1-0.5 0.1-0.3 0.2 0.1 0.3 0.1 0.1-0.1 0-0.2 0-0.8 0.2-1.4 0.3-1.2 0.3-1.2-0.4-1.8l-0.7-0.6-1.4 1.7c-0.8 0.9-1.8 2.3-2.3 3-0.6 0.7-1 1.2-1.1 1.2 0-0.1 0.3-1.1 0.8-2.2 0.5-1.2 1.1-2.8 1.3-3.8 0.5-1.6 0.5-1.7 0-2-0.2-0.2-0.6-0.4-0.8-0.4-0.1 0-1 1-1.8 2.2-0.9 1.2-1.9 2.5-2.3 2.8-0.3 0.3-0.6 0.7-0.6 0.8 0 0.2-0.2 0.5-0.5 0.6-0.5 0.3-0.5 0.3-0.2-0.1 0.2-0.4 0.1-0.8-0.8-2.6-1.2-2.3-1.5-2.8-1.8-2.6 0 0-0.3-0.2-0.4-0.5-0.2-0.3-0.2-0.6-0.1-0.5 0.1 0.1 0.2-0.1 0.2-0.3 0-0.8-0.4-0.9-1.2-0.2q-0.8 0.7-1.1 0.5-0.3-0.3 0-0.5c0.2-0.1 0.3-0.5 0.3-1 0-1-0.5-0.9-0.5 0.1l-0.1 0.7-0.2-0.8c-0.1-0.4-0.2-1.4-0.2-2.2 0-0.7-0.1-1.4-0.2-1.5-0.1-0.1-0.9 0.5-1.7 1.2-1.7 1.5-3 2.3-3 1.9 0-0.2-0.1-0.2-0.2-0.1q-0.3 0.1-0.1-0.5c0.7-1.6 1.4-7 0.9-6.5-0.2 0.1-0.7 1.2-1.3 2.4-0.5 1.2-1 2.1-1.1 2-0.2 0-0.4 0.2-0.5 0.6l-0.3 0.8-0.9-0.9c-2.1-2.1-7.6-6-11.5-8.2-1.1-0.6-2.1-1.1-2.2-1.1-0.1 0-0.2 0.2-0.2 0.5 0 0.3-0.1 0.5-0.1 0.4-0.1-0.1-0.2-0.6-0.2-1.1 0-1.5-0.2-1.7-1.1-0.9l-0.8 0.7-1.4-2.9c-1.6-3-2.1-3.6-2.6-3.4-0.2 0.1-1.5 0.9-2.8 1.8-1.4 0.9-2.4 1.4-2.3 1.2 0.3-0.5 1.6-4.9 2.1-7.1 0.2-0.8 0.4-1.4 0.6-1.3q0.2 0.1 0.1-0.1c-0.1-0.2-0.1-0.7 0-1.2 0.1-0.7 0.2-0.8 0.4-0.6q0.2 0.4 0-0.2c0-0.3 0.1-1.3 0.3-2.2 0.3-1.4 0.9-6.6 0.9-7.8 0-0.1-0.8 1.2-1.7 2.9-2.4 4.5-5.2 8.9-6 9.8-0.4 0.4-1.4 1.8-2.3 3.2-0.9 1.4-1.6 2.5-1.7 2.5-0.1 0 0-0.1 0.1-0.3q0.2-0.3-0.3 0c-0.4 0.4-0.6 0.9-0.1 0.7 0.2-0.1 0.2 0 0 0.3-0.4 0.7-0.6 0.7-0.4 0.1 0.1-0.2-0.1-0.1-0.5 0.3-0.4 0.4-0.7 0.7-0.7 0.6 0-0.1 1.4-3.5 3.1-7.6 1.6-4.1 3.4-8.5 3.9-9.9 2-5.2 5.9-17.2 7.4-22.6 0.4-1.6 0.8-3.2 0.9-3.4 0.1-0.3-0.1-0.5-0.8-0.8-1.2-0.5-3.4-0.9-3.5-0.6-0.1 0.1-1-0.7-2-1.7-1.1-1-2.1-1.9-2.2-1.9zm8.9 2.8c-0.3 0-0.5 0.1-0.5 0.3 0 0.3 0.2 0.4 0.4 0.3 0.2-0.1 0.4-0.1 0.4-0.1 0.1 0 0.2-0.2 0.2-0.3 0-0.1-0.3-0.2-0.5-0.2zm-21.5 8c-0.1 0-0.4 0.7-0.3 0.9 0.1 0.1 0.2-0.1 0.3-0.4 0.1-0.3 0.1-0.5 0-0.5zm-0.4 1.3c-0.2-0.1-0.4 0.6-0.4 1 0 0.2 0.1 0 0.2-0.3 0.2-0.3 0.3-0.6 0.2-0.7zm-2.3 4.8c0-0.1-0.4 0.4-0.7 1-0.3 0.6-0.7 1-0.8 1q-0.3-0.1-0.1 0.1c0.1 0.1-0.1 0.7-0.4 1.2-0.7 1.3-2.2 4.1-2.5 4.9-0.1 0.3-0.5 1.2-0.9 2l-0.6 1.4 1.7 0.7c1.9 0.7 2.4 1 1.8 1.4-0.3 0.2-0.3 0.2 0.1 0.2 0.4 0 0.4-0.2 0.4-1.1 0-0.7 0.3-2.6 0.6-4.4 0.4-1.7 0.9-4.3 1.1-5.7 0.2-1.5 0.4-2.7 0.3-2.7zm-9.3 1.9c0 0-0.4 0.7-0.9 1.5-0.4 0.9-0.6 1.4-0.4 1.1 0.2-0.2 0.5-0.6 0.7-0.9 0.2-0.2 0.5-0.7 0.6-1.1 0-0.3 0.1-0.6 0-0.6zm12.1 3.3c0 0-0.2 0.1-0.3 0.3-0.2 0.7-0.1 0.8 0.2 0.3 0.1-0.2 0.2-0.5 0.1-0.6zm-13.1 0.2c0 0-0.6 0.9-1.2 2.1-0.6 1.2-1 2.2-1 2.2 0.1 0.1 0.6 0.2 1.1 0.3l0.9 0.2 0.1-2.4c0.1-1.2 0.1-2.3 0.1-2.4zm34.1 0.9c0-0.1-1.1 2-2.5 4.5-1.3 2.6-2.2 4.6-2.1 4.5 0.2-0.2 1.3-2.2 2.5-4.6 1.2-2.4 2.2-4.4 2.1-4.4zm-36.9 4.1c-0.2 0-0.6 1.4-0.5 1.5 0.2 0.2 2.6 0.8 3.2 0.8 0.1 0 0.2-0.3 0.2-0.7 0-0.3 0-0.6 0-0.6-0.1 0-0.7-0.2-1.5-0.5-0.8-0.3-1.4-0.5-1.4-0.5zm6.2 2.4c0-0.1-0.2 0-0.3 0.2-0.1 0.3 0 0.4 0.1 0.3 0.1-0.1 0.3 0 0.3 0.1 0 0.1 0.9 0.5 1.9 0.9 2.6 0.9 2.7 1 2.7 0.6 0-0.3-3.5-1.9-4.2-1.9-0.2 0-0.4-0.1-0.5-0.2zm2.5 0.1c-0.1 0-0.1 0.1 0.1 0.3 0.2 0.1 0.5 0.2 0.7 0.2 0.1 0 0-0.1-0.2-0.2-0.2-0.2-0.5-0.3-0.6-0.3zm4 2.8c-0.6-0.3-1.1-0.4-1.1-0.3 0 0.1 0.5 0.4 1.1 0.6 0.5 0.2 1 0.3 1 0.3 0-0.1-0.5-0.4-1-0.6zm19.4 0.1c-0.1-0.1-0.3 0-0.3 0.3-0.2 0.3-0.2 0.4 0.1 0.1 0.2-0.1 0.2-0.3 0.2-0.4zm-17.7 0.8c-0.3-0.1-0.5-0.1-0.3 0 0.1 0.2 0.7 0.4 1.2 0.7 1 0.4 1 0.4 0.6-0.1-0.3-0.3-0.6-0.5-0.7-0.4-0.1 0.1-0.5 0-0.8-0.2zm17.2 0.2c-0.1-0.1-0.3 0-0.4 0.3-0.1 0.3-0.1 0.4 0.2 0.1 0.2-0.1 0.2-0.3 0.2-0.4zm-82 13c-0.6 0.5-0.7 0.6-0.3 0.6 0.4 0 0.6 0.5 0.2 0.5-0.1 0-0.8 1.5-1.6 3.2l-1.3 3.3v3.3c0 3.3-0.1 3.8-0.5 2.2-0.2-0.6-0.2-0.4-0.1 0.7 0.1 0.8 0.3 2.1 0.5 2.8 0.8 2.7 3 9.4 3.2 9.5 0.1 0.1 0.2 0.4 0.3 0.8 0 0.3 0.2 0.6 0.4 0.6 0.2-0.1 0.5 0.3 0.7 0.7 0.1 0.4 1 1.5 1.8 2.4 1 1.1 1.4 1.7 1.2 1.8-0.3 0.1-0.3 0.2 0 0.5 0.6 0.4 0.9-8.2 0.3-9.2-0.2-0.4-0.4-0.8-0.4-1 0-0.2-0.1-0.5-0.2-0.8-0.8-1.5-1.1-4.7-0.6-8.2 0-0.6 0.1-1.1 0.1-1.2 0-0.8 4.3-8.4 4.9-8.4 0.1 0 0.1-0.1 0.1-0.2-0.3-0.4-2.9-0.4-3.1 0-0.1 0.2-0.5 1.2-0.9 2.3-0.4 1.1-0.9 2.2-1.1 2.5-0.5 0.8-2.2 5.9-2.2 6.6 0 0.3-0.2 0.6-0.4 0.7-0.4 0.1-0.6 1.4-0.2 1.4 0.2 0 0.4 0.4 0.4 0.8 0.1 0.4 0.6 1.6 1 2.6l0.7 1.7-0.6-0.6c-0.4-0.3-0.9-1.3-1.2-2.2-0.4-1-0.6-1.5-0.9-1.4-0.2 0.1-0.4-0.1-0.5-0.4-0.2-0.6 0.1-2.3 0.4-2.3 0.3 0 1.3-3.8 1.3-5.3 0-0.7 0.6-2.8 1.6-5l0.4-1-0.9 0.6c-0.6 0.3-1.2 0.8-1.5 1-0.6 0.5-1.4 0.6-1.4 0.2 0-0.5 1.6-3.3 3.2-5.7 0.8-1.1 1.4-2.1 1.4-2.1q-1.1-0.9-4.2 1.7zm4.9-1.4c-0.2 0-0.6 0.3-0.8 0.8-0.2 0.4-0.4 0.7-0.4 0.7 0.1 0 0.5-0.3 0.8-0.7 0.4-0.5 0.6-0.8 0.4-0.8zm-6.1 2.6c-0.1 0-0.3 0.2-0.5 0.6-0.5 1-1.8 4.9-1.7 5 0 0 0.6-1.2 1.2-2.7 0.6-1.5 1-2.8 1-2.9zm-2.4 7.9c-0.3 0-0.4 0.6-0.2 1.7l0.3 1.2v-1.4c0-0.8 0-1.5-0.1-1.5zm12.1 0.8c-0.1-0.3-0.2-0.3-0.2 0 0 0.2-0.4 0.8-0.7 1.2-1.2 1.5-1.6 2.3-2 4.3-0.3 1.8-0.3 1.9 0.2 2.4l0.6 0.6 0.7-3.3c0.4-1.8 0.9-3.7 1.1-4 0.2-0.4 0.3-0.9 0.3-1.2zm121.9 1.1c-0.3 0.6-0.4 1.1-0.2 1.1 0.1 0 0.4-0.4 0.6-0.9 0.6-1.3 0.3-1.5-0.4-0.2zm5 1.2c0 0-0.1 0.1-0.2 0.3-0.3 0.7-0.2 0.8 0.1 0.3 0.1-0.2 0.2-0.5 0.1-0.6zm-1.5 3.1c0-0.1-0.5 0.6-1.1 1.5-0.5 1-1.3 2.2-1.7 2.8-0.5 0.6-0.6 1-0.5 0.9 0.3-0.1 0.5 0 0.7 0.3 0.3 0.3 0.4 0.3 0.5 0.1q1.6-4.8 2-5.2c0.1-0.2 0.2-0.4 0.1-0.4zm-6 1.1q-0.4 0.6-0.1 0.8 0.3 0.3 0.4-0.4c0.2-0.9 0.1-1-0.3-0.4zm-120.5 0.3c-0.1-0.1-0.1 0.1-0.1 0.3 0 0.3 0.1 0.4 0.1 0.2 0.1-0.2 0.1-0.4 0-0.5zm120 1.3c-0.2 0-0.3-0.1-0.3 0 0 0 0.1 0.2 0.3 0.4 0.3 0.2 0.4 0.2 0.4 0 0-0.1-0.1-0.3-0.4-0.4zm5.5 3c-0.1-0.1-0.2 0-0.3 0.3-0.2 0.6-0.2 0.8 0.1 0.3 0.2-0.3 0.3-0.6 0.2-0.6zm-131.2 9.1c-0.1 0 0.1 0.3 0.3 0.5 0.3 0.3 0.5 0.5 0.6 0.5 0.1 0-0.1-0.2-0.3-0.5-0.3-0.2-0.5-0.5-0.6-0.5zm130.7 0.3c-0.1 0-0.2 0.1-0.1 0.2 0.1 0.2 0.2 0.3 0.3 0.3 0 0 0.1-0.1 0.1-0.3 0-0.1-0.1-0.2-0.3-0.2zm7.4 3.3c-0.1 0-0.8 1.1-1.6 2.5-0.8 1.4-1.7 2.9-1.9 3.2-0.3 0.6-0.3 0.6 0 0.3 0.2-0.2 1.1-1.6 2-3.1 0.9-1.5 1.5-2.8 1.5-2.9zm17.4 7.9c0-0.1-0.4 0.8-0.8 2-1.2 3.6-4 10.7-4.4 10.9-0.1 0.1-2.4 1.7-5 3.6-4.6 3.2-5.5 3.8-4.9 3 0.3-0.3 0.1-1.3-0.7-4.3-1.5-5.7-2.6-9.2-2.9-9.1-0.4 0.2-0.7 1.9-0.6 3 0.1 0.4 0.4 1.6 0.7 2.6 0.2 1 0.8 3.4 1.1 5.4 0.4 2 0.8 3.8 0.8 4.1 0.2 0.6-1.3 1.9-6.7 5.8l-3.1 2.3-0.6 1.9c-0.4 1-0.6 1.9-0.6 1.9 0.1 0 1.9-1.3 4.2-3 2.2-1.6 4.4-3.2 5-3.6 0.6-0.4 1.4-1 1.9-1.4 0.9-0.8 1.2-1 1-0.4-0.1 0.2-0.1 0.7 0 1.1 0.3 0.7 0.5 2 1.3 6l0.5 2.6-1.7 4.1c-1.9 4.5-8.3 19.5-10 23.3-0.6 1.3-1 2.4-0.9 2.5 0 0 0.5-1 1.1-2.4 1.6-3.6 8-18.2 9.5-21.8 0.7-1.7 1.7-3.8 2.1-4.6 0.4-0.9 0.9-1.9 1-2.4 0.1-0.5 1.4-3.8 2.9-7.4 1.5-3.6 3.2-7.7 3.8-9.1 0.5-1.4 1.1-2.7 1.2-2.9 0.1-0.1 0.3-0.5 0.3-0.9 0.1-0.3 0.5-1.4 0.9-2.4 0.3-0.9 1.3-3.6 2.2-5.9 0.8-2.4 1.4-4.4 1.4-4.5zm-28.2 30.6c-0.8 0.9-0.9 1.8-0.2 1.2 0.4-0.3 0.4-0.3 0.1 0.2-0.4 0.7-0.4 1.8 0 1.4 0.2-0.2 1.2-2.9 1.2-3.4 0-0.4-0.5-0.1-1.1 0.6zm-3.4 11.9q-0.3 0.3-0.1 0.5c0.2 0.1 0.4 0 0.4-0.3 0.3-0.5 0.1-0.6-0.3-0.2zm-5 4.8l-0.6 0.7 0.7-0.6c0.4-0.4 0.7-0.7 0.7-0.7 0-0.2-0.2 0-0.8 0.6zm-3.5 2.2c-0.2-0.1-3.9 2.4-3.8 2.6 0.1 0.1 2.4-1.3 3.4-2.1 0.3-0.2 0.4-0.4 0.4-0.5zm-10.6 5.9c0 0-0.5 0.2-1.1 0.5-0.6 0.3-0.8 0.4-0.4 0.3 0.4 0 0.9-0.1 1.1-0.1 0.2 0 0.4-0.2 0.4-0.4 0-0.2 0-0.3 0-0.3zm-25.1 6.2c0 0-0.9 0.4-2 0.9-1 0.5-2.9 1.3-4.3 1.8-1.3 0.4-3.6 1.3-5 1.8-1.4 0.6-3.9 1.4-5.6 1.9-1.7 0.5-3.2 1-3.3 1.1-0.4 0.4 0 0.9 0.9 1.2 0.5 0.2 1.1 0.5 1.5 0.7 0.4 0.2 0.7 0.3 0.8 0.2q0.2-0.1 0 0.3c-0.1 0.3 0.2 0.5 1.3 1 0.8 0.3 1.5 0.7 1.6 0.9 0.1 0.1 0.7 0.5 1.4 0.9 0.7 0.3 1.6 0.9 2 1.3 0.4 0.4 1.2 0.8 1.8 1 0.5 0.2 1.1 0.5 1.2 0.8 0.4 0.4 0.2 0.7 2.1-4 1.2-3.3 3.6-8.3 4.9-10.5 0.4-0.7 0.7-1.3 0.7-1.3zm48.9 3.6c0-0.1-0.2 0.1-0.3 0.3-0.2 0.7-0.1 0.8 0.2 0.3 0.1-0.2 0.2-0.5 0.1-0.6zm-0.8 1.8c-0.1-0.1-0.6 1-0.6 1.3 0 0.1 0.2-0.1 0.4-0.5 0.2-0.4 0.3-0.8 0.2-0.8zm-52.7 9c-0.3-0.4-0.4-0.3-0.8 0.9-0.3 1.3-0.3 1.4 0.1 1.8 0.3 0.3 0.7 0.4 0.8 0.3q0.3-0.2 0.2 0c-0.3 0.4 0.1 0.7 1.2 1.1 0.6 0.2 1.4 0.6 1.7 0.9 0.4 0.4 0.9 0.6 1 0.5 0.1-0.1 0.2 0 0.2 0.1 0 0.2 0.2 0.3 0.4 0.3 0.2 0 0.4 0.1 0.4 0.2 0 0.1 0.3 0.3 0.6 0.4 0.4 0.1 0.7 0.3 0.8 0.6q0.1 0.5 1.4 0.8 1.3 0.3 1.3 0.7c0 0.4 0 0.4 0.3 0 0.2-0.3 0.2-0.3 0.2 0.2 0.1 0.4 0.1 0.3 0.2-0.2 0.1-0.3 0.1-0.7 0-0.8-0.2-0.2-2.4-1.9-4.9-3.9-2.6-2-4.8-3.7-5.1-3.9z"/>
		<path id="Layer" class="s0" d="m128.3 58.7c0 0.1 0.5 0.9 1.1 1.9 1.4 2.3 1.8 3.1 2.3 4.5 0.6 1.8 1.7 6.9 1.7 8 0.1 1.8 0.4 1.2 1.7-2.9 0.3-1.1 0.7-2.8 0.8-3.8l0.1-1.8-1.2-1.3c-1.4-1.4-4.5-4-5.4-4.4-0.6-0.4-1.1-0.4-1.1-0.2z"/>
		<path id="Layer" fill-rule="evenodd" class="s0" d="m122.5 63.9c3.8 1.4 5.8 2.5 6.4 3.7 0.5 0.8 0.5 1.1-0.1 0.6-0.2-0.2-1.1-0.7-2-1.1-0.8-0.5-1.7-1-1.9-1.2-0.2-0.2 0.2-0.1 0.9 0.3l1.3 0.7-0.9-0.8c-0.7-0.5-4.9-2.2-4.9-1.9 0 0 0.5 0.4 1.1 0.7 1.1 0.7 3.2 2.9 5.1 5.4 0.7 1 1 1.5 1 2.2-0.1 0.4-0.1 0.8-0.2 0.8 0 0-0.5-0.4-1-0.9l-0.9-1 0.6 1.1c0.6 1.2 1.1 2.5 0.9 2.3-0.1-0.1-0.7-1-1.4-2-2.3-3.4-3.2-4.4-6-6.1-1.4-1-3.1-1.9-3.8-2.1-0.7-0.1-3.2-0.3-5.7-0.4-4.2-0.2-4.5-0.2-6.9 0.5l-2.6 0.6-2.1 2.1c-1.9 1.8-3.9 4.5-3.7 5 0 0.1-0.2 0.8-0.6 1.6-0.8 1.7-0.8 2.8-0.1 5.5 0.8 3.2 0.8 3.1 0.4 3.1-0.4 0-1.6-2.3-2.2-4.2-0.3-0.9-0.5-1-0.8-0.9-0.6 0.1-0.6-0.2-0.2-0.7q0.3-0.3-0.2 0.1c-0.8 0.6-0.9 0.5-0.8-0.4 0.3-1.6 1.5-4.4 2.5-5.7 0.6-0.7 1.2-1.6 1.4-2.1 0.2-0.5 1-1.6 1.8-2.4l1.5-1.6-1.5 1.1c-0.9 0.5-2.3 1.6-3.1 2.3-0.8 0.7-1.3 1.1-1.2 0.8 0.8-1.3 4.9-4.4 7.8-5.7 2-0.9 3.5-1.3 5.5-1.6 4.5-0.7 10.7 0.2 16.6 2.3zm-8.6-1.3q-0.4 0 0.1 0.2c0.7 0.3 1.1 0.3 0.7 0-0.2-0.1-0.6-0.2-0.8-0.2z"/>
		<path id="Layer" fill-rule="evenodd" class="s0" d="m112.6 68c0.2 0 1 0.1 1.7 0.2 2 0.3 3.8 1 4.7 2 0.5 0.5 1.1 0.9 1.2 0.9 0.5 0 2.7 2.8 2.7 3.4 0 0.3 0.2 0.7 0.4 0.8 1 0.5 0.9 5.6-0.2 8-0.8 1.8-2.5 4.1-3.4 4.4-0.4 0.2-1.1 0.6-1.4 0.8-1.5 1.2-2.2 1.3-5.1 1.3-3 0-3.2-0.1-6.1-1.6-0.2-0.2-0.8-0.5-1.2-0.6-0.4-0.2-1.1-0.9-1.6-1.5-0.5-0.6-1.1-1.3-1.4-1.4-0.6-0.4-1.5-3.2-1.7-5.4-0.1-1.2 0-1.9 0.4-3.2 0.8-2.2 2.6-4.9 4.3-6.2 1.4-1.1 2.6-1.5 5.6-1.9 0.4-0.1 0.9-0.1 1.1 0zm-4.9 5.1c-0.7 0.6-1.3 1.2-1.4 1.2-0.3 0-1.9 2.3-1.8 2.4 0.1 0.1 0 0.5-0.2 1-0.5 1.2-0.7 3.4-0.3 4.3 0.1 0.4 0.2 0.8 0.2 1 0 0.2 0.1 0.4 0.2 0.5 0.2 0 0.3 0.3 0.3 0.5 0 0.3-0.1 0.3-0.4 0.1-0.5-0.5-0.5-0.1 0.2 0.8 0.6 0.8 1.1 1 0.7 0.2-0.2-0.3-0.2-0.6-0.1-0.7 0.2-0.2 2.4 1.8 2.3 2.1-0.1 0.2 0 0.3 0.1 0.3 0.2 0 0.6 0.3 0.9 0.6 0.3 0.3 0.9 0.7 1.4 0.9 0.4 0.2 0.8 0.4 0.8 0.6 0 0.1 0.3 0.2 0.7 0.2 0.4 0 0.5-0.1 0.3-0.2-0.2-0.1-0.6-0.3-1-0.6-0.3-0.3-0.8-0.5-1.1-0.5-0.2 0-0.4-0.1-0.4-0.2 0-0.1 1.1-0.2 2.4-0.2 2.6-0.1 3.4 0.3 1.1 0.5-1.3 0.1-1.3 0.1 0.4 0.1 0.9 0.1 1.7 0.2 1.7 0.3 0 0.2-0.1 0.3-0.3 0.3q-0.3 0-0.1 0.2c0.1 0 0.4-0.1 0.6-0.4 0.4-0.3 0.8-0.6 1-0.6 0.5 0 1.9-0.7 1.4-0.7-0.9 0 0.5-1.6 1.4-1.6 0.2 0 0.3-0.1 0.3-0.3 0-0.1 0.4-0.9 0.8-1.7 0.8-1.3 0.8-1.9 0.1-1-0.6 0.8-0.6 0.2-0.1-1.2 0.7-1.7 1-4.2 0.5-4.2-0.2 0-0.6-0.3-0.9-0.7-1.2-1.7-2.4-2.8-4.1-3.6-1.9-0.9-2.9-1-5.1-0.7-0.8 0.2-1.1 0.2-1 0 0.4-0.7-0.5-0.2-1.5 1zm6.7-1.5c-0.4 0-0.3 0.1 0.2 0.3 0.2 0.1 0.3 0.1 0.2-0.1-0.1-0.1-0.2-0.2-0.4-0.2zm5 1.4c-0.2-0.1-0.4-0.1-0.4-0.1 0 0.1 0.2 0.2 0.4 0.4 0.3 0.2 0.4 0.2 0.4 0.1 0-0.2-0.2-0.3-0.4-0.4zm1.9 3.8c-0.6 0.5 0.1 2.3 0.8 2.3 1.2 0 1.7-1.5 0.9-2.2-0.5-0.3-1.5-0.4-1.7-0.1zm-16.1 9.3c0 0.1 0.2 0.3 0.4 0.3 0.4 0.2 0.4 0.1 0.1-0.2q-0.5-0.6-0.5-0.1z"/>
		<path id="Layer" fill-rule="evenodd" class="s0" d="m114.7 73.2c0.4 0.4 0.8 0.9 0.8 1.2 0 0.5 0.2 0.5 0.7 0.1 0.3-0.3 0.4-0.2 0.5 0 0 0.2 0.3 0.6 0.6 0.8 0.3 0.3 0.5 0.6 0.4 0.7-0.1 0.1 0.2 0.2 0.6 0.1 0.7-0.1 0.8 0 0.7 0.6 0 0.4 0 0.9 0.1 1.1q0.3 0.3-0.2 0.7c-0.3 0.2-0.3 0.3-0.2 0.3 0.2 0 0.4 0.3 0.6 0.6 0.3 0.4 0.2 0.5 0 0.7-0.3 0.2-0.3 0.3 0 0.5q0.4 0.3 0.1 0.4c-0.2 0.1-0.2 0.4-0.2 0.7 0.1 0.4 0 0.6-0.4 0.8-0.3 0-0.5 0.3-0.5 0.5 0 0.2-0.2 0.3-0.5 0.3-0.2 0-0.6 0.1-0.7 0.3-0.1 0.1-0.8 0.3-1.5 0.4-0.7 0.1-1.6 0.2-1.9 0.4q-0.7 0.2-0.8-0.1c-0.2-0.2-0.2-0.2-0.3 0.1-0.1 0.2-0.2 0.2-0.5 0-0.3-0.2-0.4-0.2-0.8 0.1-0.3 0.3-0.5 0.3-0.5 0.1 0-0.1-0.2-0.3-0.5-0.3-0.2 0-0.5-0.1-0.5-0.3 0-0.2-0.1-0.3-0.3-0.3-0.2 0.1-0.5 0-0.7-0.3-0.2-0.4-0.4-0.5-0.8-0.4-0.4 0.1-0.5 0-0.5-0.5 0-0.5-0.1-0.6-0.7-0.7-0.7-0.2-0.8-0.3-0.7-0.9 0-0.3 0.3-0.7 0.5-0.8 0.4-0.1 0.4-0.2-0.2-0.5-0.7-0.3-0.9-0.8-0.2-0.8 0.3 0 0.3 0-0.2-0.5-0.7-0.7-0.7-1-0.1-1 0.6 0 1.3-0.5 1.4-1.1q0.1-0.5 0.8-0.6c0.7 0 0.8-0.1 0.6-1-0.2-0.8-0.2-0.8 0.4-0.7 0.5 0.1 0.6 0.1 0.6-0.4 0-0.7 0.7-0.6 1.6 0.1 0.4 0.4 0.6 0.4 0.7 0.2 0.1-0.2 0.4-0.2 0.7-0.2q0.5 0.2 0.5-0.3c0-0.2 0-0.5 0.1-0.6 0.3-0.3 0.5-0.2 1.4 0.5zm-3.2 3.3c-0.3 0.2-0.3 0.3-0.2 0.3 0.2 0 0.3 0.2 0.2 0.3-0.1 0.1-0.3 0.2-0.4 0.1-0.1-0.1-0.4 0.1-0.5 0.4-0.1 0.4-0.2 0.5-0.9 0.5-0.2 0-0.2 0.3-0.2 1 0.1 0.5 0 1-0.1 1-0.1 0-0.2 0.4-0.3 0.9q0 0.8 0.4 0.8c0.2 0 0.4 0.2 0.5 0.4 0.1 0.2 0.2 0.4 0.4 0.4 0.4 0 1 0.7 0.8 1-0.1 0.2 0.1 0.1 0.4-0.1 0.4-0.2 0.6-0.2 0.8 0 0.2 0.2 0.5 0.2 1.2-0.1 0.5-0.2 1.2-0.4 1.4-0.5 0.3-0.1 0.5-0.3 0.5-0.4 0-0.2 0.2-0.5 0.5-0.7 0.5-0.3 0.6-0.6 0.6-1.8 0-1-0.1-1.3-0.4-1.3q-0.4 0-0.3-0.7c0-0.7-0.1-0.7-2.1-1.1-0.7-0.1-1.4-0.4-1.4-0.6q0-0.5-0.9 0.2z"/>
		<path id="Layer" fill-rule="evenodd" class="s0" d="m111.6 78.3l1.6 0.1 1.6 0.1 0.1 1c0.1 1.2-0.5 2.3-1.4 2.5-0.8 0.2-2.7-0.8-2.7-1.4 0-0.3 0.2-0.5 0.3-0.6 0.1-0.1 0.3-0.5 0.4-0.9zm1.8 2.9c-0.3 0.3-0.3 0.3 0.1 0.2 0.2-0.1 0.4-0.2 0.4-0.4q0-0.5-0.5 0.2z"/>
		<path id="Layer" class="s0" d="m98.2 87.2c0.5 0.7 1.6 1.6 2.4 2.2 0.8 0.6 1.2 0.9 0.9 0.8-0.3-0.1-0.7-0.2-1-0.3-0.3-0.1-1-0.4-1.5-0.8-1-0.7-1.4-0.7-2.2-0.2-0.4 0.4-0.4 0.8 0.1 0.6 0.3-0.1 0.6 0 0.8 0.1 0.2 0.2 0.6 0.2 1 0.1q1.1-0.3 0.6 1l-0.2 0.7 0.8-0.5c0.7-0.4 1-0.4 1.5-0.2 0.6 0.2 0.7 0.3 0.6 0.9-0.1 0.6-0.1 0.6 0.2 0q0.3-0.5 0.7-0.4c2.5 0.8 10.9 1.2 12.2 0.6q0.5-0.2-1.2-0.1c-0.9 0.1-3.1 0-4.8-0.1-3-0.3-3.3-0.4-5.7-1.5-1.5-0.7-3.2-1.8-4.1-2.6-0.9-0.8-1.7-1.4-1.8-1.4-0.1 0 0.2 0.5 0.7 1.1z"/>
		<path id="Layer" fill-rule="evenodd" class="s0" d="m187.3 90.6c0.2 0 0.7 0.1 1 0.2 0.4 0.2 0.3 0.3-0.7 0.9-0.6 0.4-1.9 1.2-2.9 1.8l-1.8 1.2 0.8 0.3c0.4 0.2 1 0.3 1.2 0.3 0.7 0 4.1 1.3 5.8 2.2 1.5 0.7 4.2 2.7 3.1 2.2-0.2-0.1 0.1 0.3 0.7 0.8 2.6 2.3 3.9 3.7 4.5 5.1 0.4 0.7 1.1 2 1.4 2.8 1.4 2.5 1.6 3.8 1.7 7.3 0.1 3.1-0.3 6-0.9 6.5-0.3 0.4-0.3 0 0.1-1.5 0.4-0.9 0.4-1.9 0.3-4.3-0.3-3.9-0.6-5.3-0.6-2.4-0.1 3.3-0.4 4.7-2.1 7.9-2.2 4-3.3 5.4-3.3 3.9 0-0.5 0-0.5-0.6 0-0.3 0.3-0.5 0.4-0.6 0.2q-0.2-0.3-0.6-0.1c-0.5 0.3-3.2 0.3-3 0 0.1-0.1 0.5-0.3 0.9-0.4 1-0.2 3.6-1.4 3.6-1.6 0-0.1 0.4-0.9 0.9-1.6 0.5-0.8 1.2-2.3 1.7-3.5 0.8-2 0.8-2.1 0.7-4.7-0.3-3.9-1.1-6.7-2.9-9.3-1.2-1.9-1.7-2.4-3.8-3.8-3-2.1-3-2.1-5.9-2.7-2.3-0.5-2.8-0.5-5.4-0.2-4.4 0.4-5.3 0.8-7.7 3.5-2.1 2.5-2.2 2.7-2.8 5.3-0.3 1.5-0.3 2.2-0.1 3.6 0.3 2 0.3 1.9 0.3 2.2 0 0.1-0.4-0.2-0.7-0.7-0.9-1.3-2.5-6.8-2.5-8.9-0.1-1.4 0-1.8 0.8-2.9 0.5-0.8 1-1.4 1.1-1.4 0.1 0 0.9-0.8 1.7-1.9 2.1-2.6 4.4-4.4 6.6-5.2 1.5-0.6 2.4-0.7 5.6-0.8 2.1-0.2 4.1-0.2 4.4-0.3zm-4.9 4.8h-0.5l0.5 0.2c0.3 0.1 0.7 0.2 0.9 0.2 0.3 0 0.3 0 0-0.2-0.2-0.1-0.6-0.2-0.9-0.2zm16.8 13.8c-0.3-0.6-0.3 0.1 0 0.9 0.1 0.5 0.2 0.5 0.2 0.1 0-0.2-0.1-0.7-0.2-1z"/>
		<path id="Layer" fill-rule="evenodd" class="s0" d="m185.4 101.3c0.6 0.3 1.7 0.8 2.5 1.1 2.6 1.2 4.2 3 5.1 6 0.6 1.8 0.7 3.6 0.2 5.9-0.6 2.5-1.3 3.9-2.8 5.2-2 1.8-3.7 2.5-6.2 2.5-1.1 0-2.5-0.2-3.1-0.4-2.3-0.7-3.2-1-3.1-1.3 0.2-0.1 0-0.1-0.2 0-0.4 0.1-1.9-1.3-1.9-1.8 0-0.2-0.2-0.5-0.4-0.6-0.3-0.3-0.4-0.3-0.2 0.1 0.2 0.6-0.3 0.4-1-0.3-1.2-1.3-1.6-2.3-1.6-4.2 0-1.2 0-1.5-0.2-1-0.3 1.3-0.2-0.2 0.2-2.2 0.4-2.4 1.8-4.8 3.7-6.6 1.7-1.6 2.5-2.1 4.3-2.5 2.2-0.4 3.6-0.4 4.7 0.1zm-3.5 2.8c-0.3 0.1-0.8 0.2-1.1 0.2-0.3 0.1-1 0.3-1.5 0.7-0.6 0.3-1.2 0.6-1.5 0.6-0.5 0-0.8 0.4-1.6 1.9-1.6 3.2-2 5.6-1.1 7.5 0.3 0.7 0.6 1.3 0.6 1.4 0 0.1 0.1 0.3 0.3 0.4q0.2 0.2 0-0.2c-0.2-0.3-0.2-0.3 0.2 0 0.3 0.2 0.4 0.4 0.2 0.5-0.4 0.1 0.6 1.6 1.3 1.9 1.3 0.7 1.7 0.6 0.9 0-0.4-0.3-0.9-0.6-1-0.6-0.1 0-0.2-0.2-0.2-0.4 0-0.3 0.4-0.1 1.3 0.6 1.9 1.3 4.6 2.7 4.8 2.3 0.1-0.1 0.4-0.3 0.8-0.3 1 0 3.6-1.2 3.1-1.5q-0.3-0.2-0.1-0.3c0.2-0.1 0.3-0.3 0.2-0.5-0.1-0.2 0.3-0.8 0.9-1.4 0.6-0.7 1.2-1.4 1.3-1.8 0.2-0.3 0.5-0.8 0.8-1.1 0.2-0.2 0.3-0.5 0.3-0.5-0.3-0.4 0-0.8 0.5-0.7 0.8 0.2 1.7-0.4 1.7-1.3 0-0.9-0.6-1.4-1.7-1.4-0.6 0-0.8-0.1-0.8-0.4 0-0.3-0.6-1.1-1.3-1.8-1.2-1.4-1.2-1.4-1.6-0.8-0.2 0.5-0.2 0.6 0.1 0.4 0.6-0.2 1.3 0.6 1 1.1-0.2 0.3-0.1 0.5 0.3 0.8 0.5 0.4 0.5 0.5 0.1 1.1-0.4 0.7-0.4 0.8 0.2 1.5 0.6 0.7 0.6 0.7 0.1 1.1-0.3 0.2-0.4 0.5-0.3 0.9 0.1 0.5 0 0.6-0.3 0.6-0.3 0-0.4 0.2-0.3 0.9 0 0.8-0.1 1-0.5 1.1-0.2 0-0.7 0.2-0.9 0.4-0.2 0.2-0.5 0.3-0.6 0.2-0.1-0.1-0.3 0-0.5 0.1-0.2 0.2-0.4 0.3-0.5 0.1-0.1-0.2-0.3-0.2-0.5-0.1-0.6 0.3-1.7 0.3-2-0.1-0.2-0.3-0.3-0.3-0.5-0.1-0.1 0.2-0.4 0.3-0.6 0.1-0.3-0.1-0.8-0.1-1-0.1-0.4 0-0.5-0.1-0.4-0.4 0.2-0.4 0.1-0.5-0.6-0.4q-1.1 0.1-0.4-0.7 0.4-0.4 0-0.1c-0.5 0.2-1.3-0.1-1.1-0.5 0-0.2 0-0.4-0.2-0.4-0.2 0-0.3-0.2-0.2-0.4 0.1-0.2 0-0.3-0.1-0.3-0.2 0.1-0.3-0.1-0.4-0.4 0-0.3-0.1-0.7-0.2-1-0.1-0.2-0.1-0.4 0.1-0.4q0.7 0 0.6 0.3c-0.1 0.1 0.2 0.2 0.4 0.2q0.5 0 0.4 0.4c-0.1 0.2 0 0.4 0.1 0.5 0.2 0.1 0.2 0.3 0.2 0.4-0.1 0.1 0 0.2 0.2 0.2 0.3 0 0.4 0.1 0.3 0.2-0.2 0.3 0.6 1.1 0.9 0.9 0.2-0.1 0.4 0.1 0.6 0.4 0.3 0.3 0.6 0.4 0.8 0.4 0.2-0.1 0.4-0.1 0.4 0.1q0 0.3 0.6 0.1 0.7-0.1 0.7 0.2-0.1 0.3 0.4-0.1c0.3-0.3 0.7-0.4 1-0.4q0.7 0.1 0.2-1.1c-0.1-0.3 0-0.5 0.5-0.7 0.4-0.2 0.7-0.5 0.7-0.7 0-0.1 0.1-0.3 0.2-0.3 0.4 0 0.4-0.8 0-1.2-0.2-0.1-0.2-0.5 0-1.2 0.2-0.7 0.2-0.9 0-0.6-0.5 0.4-0.7 0.3-0.7-0.3 0-0.5-0.9-1.8-1.1-1.6-0.1 0.1-0.7 0.2-1.3 0.3-0.9 0.1-1.3 0-1.5-0.3-0.1-0.3-0.2-0.3-0.2-0.2 0 0.2-0.3 0.4-0.5 0.4-0.3 0-0.6-0.2-0.6-0.4-0.1-0.1-0.2-0.1-0.2 0.2 0 0.2-0.1 0.4-0.3 0.4-0.1 0-0.2 0.3-0.3 0.6-0.1 0.3-0.2 0.4-0.3 0.3-0.3-0.2-1.2 0.3-1.2 0.8 0 0.5-1.1 1.3-1.4 1-0.1-0.1-0.2-1-0.2-2.1l-0.1-1.8 0.9-0.2c0.7-0.1 0.8-0.2 0.8-0.9 0-0.7 0.4-0.9 0.7-0.4q0.2 0.2 0.7-0.1c0.5-0.3 0.8-0.4 1.3-0.2 0.5 0.2 0.7 0.1 0.8-0.1 0-0.2 0.4-0.4 0.7-0.4 0.4 0 0.7-0.1 0.8-0.2 0.3-0.4 0.7-0.3 0.7 0.1 0 0.2 0.1 0.4 0.3 0.4 0.3 0 0.4 0.1 0.4 0.2 0 0.1 0.2 0.3 0.4 0.3 0.2 0 0.4 0.2 0.4 0.5 0 0.5 0 0.5 0.4 0.1q0.3-0.5 0.9-0.3c0.2 0.1 0.5 0 0.5-0.1 0-0.3-1.7-1.5-2.7-1.9-1-0.4-2-0.4-2.8-0.1zm-5.4 0.8l-0.5 0.6 0.6-0.5c0.3-0.3 0.6-0.5 0.6-0.6q0-0.3-0.7 0.5zm-2.4 6.8c-0.1 0-0.3 0.1-0.3 0.3 0 0.2 0.2 0.4 0.3 0.4 0.1 0 0.2-0.1 0.2-0.3 0-0.1-0.1-0.3-0.2-0.4zm18.6 2.5c-0.1-0.4-0.1-0.4-0.2 0 0 0.2-0.1 0.6-0.1 0.8-0.2 0.5-0.2 0.5 0.1 0 0.2-0.2 0.2-0.6 0.2-0.8zm-18.4 0.7q-0.2 0 0.1 0.5c0.3 0.5 0.6 0.4 0.4-0.2-0.1-0.2-0.3-0.3-0.5-0.3zm17.4 2.1c-0.1-0.1-0.2 0-0.3 0.3-0.2 0.3-0.1 0.4 0.1 0.1 0.2-0.1 0.3-0.3 0.2-0.4z"/>
		<path id="Layer" class="s0" d="m181.3 110.4c-0.7 0.8-0.7 1.7 0 2.7 0.8 1.2 1.9 1.3 3 0.4 1.7-1.4 0.7-3.6-1.5-3.6-0.7 0-1.1 0.1-1.5 0.5z"/>
		<path id="Layer" class="s0" d="m135.7 107.9c-2.6 1.3-4 2.3-4.6 3.1-0.7 0.8-1.3 2.9-1.3 4.3 0 1.1 0.1 1.4 0.6 1.7 0.5 0.3 0.9 0.4 2.4 0.2 3.8-0.6 4.1-1.1 6.9-10.2 0.2-0.8-1.4-0.5-4 0.9z"/>
		<path id="Layer" class="s0" d="m207.3 111.8c-0.1 0.3-0.2 0.7-0.1 0.7 0.1 0.1 0.2-0.2 0.3-0.5 0.1-0.4 0.1-0.7 0-0.8 0-0.1-0.2 0.2-0.2 0.6z"/>
		<path id="Layer" class="s0" d="m172.5 117.4c0 0.4 1.9 3 3.2 4.4 0.8 0.8 1.5 1.6 1.5 1.7 0 0.4 1.4 1.7 3.2 2.9 1.1 0.8 1.6 1.2 1.8 1.9l0.3 1v-0.9-0.8l1 0.5c0.6 0.3 1.1 0.7 1.2 1q0.1 0.5 0.5 0.4c0.2-0.1 0.4-0.3 0.3-0.5-0.1-0.2 0-0.4 0.2-0.4 0.4 0 1.2 0.8 1.2 1.2 0 0.1 0.2 0.4 0.3 0.6 0.3 0.4 0.4 0.4 0.4-0.2-0.1-0.4 0-0.8 0.1-1 0.1-0.2-0.6-0.5-2.1-0.9-2.6-0.7-4.1-1.4-5.4-2.4-0.9-0.9-0.9-0.9 1.5 0.1 1.4 0.6 2.2 0.7 4.3 0.8 1.4 0 2.3 0 1.9-0.1-3.9-0.6-7.7-1.8-8.9-2.7q-2.9-2.1-4.7-4.5c-1.6-2.1-1.8-2.3-1.8-2.1z"/>
		<path id="Layer" class="s0" d="m132.4 118.6c-0.4 0.2-0.4 0.3 0.1 0.3 0.2 0 0.7 0.1 0.9 0.4 0.3 0.2 0.6 0.3 0.7 0.2 0.1-0.1-0.1-0.4-0.4-0.7-0.7-0.5-0.8-0.5-1.3-0.2z"/>
		<path id="Layer" class="s0" d="m136.6 120.8c0 0.1 0.3 0.4 0.9 0.6 0.7 0.3 1 0.3 1 0.1 0-0.7-1.5-1.3-1.9-0.7z"/>
		<path id="Layer" fill-rule="evenodd" class="s0" d="m121.5 122.4c0.4 0 0.6 0.1 0.6 0.2 0 0.1 0.6 0.3 1.4 0.5 1.4 0.3 6.4 2.6 7.6 3.3 0.3 0.2 1.2 0.6 1.9 0.8 1.7 0.5 4.7 1.8 5.6 2.5 0.4 0.4 1.4 0.9 2.2 1.3 2.1 1 3.6 2.1 3.6 2.6 0 0.2 0.2 0.1 0.4-0.4 0.5-1.1 1.2-1 1.3 0.1 0.1 0.9-0.3 1.6-0.8 1.6-0.4 0-1.8 1.2-1.5 1.2 0.1 0.1-0.1 0.2-0.4 0.4-1.2 0.6-3.4 0.7-6.3 0.3-5.1-0.9-8.3-1.9-11.3-3.9-1.1-0.7-1.9-1.2-1.9-1.1 0 0.4-1.6-1.3-2.5-2.7-0.9-1.2-1.6-3.2-1.6-4.6 0-0.2 0.3-0.9 0.6-1.3 0.4-0.5 0.8-0.8 1.1-0.8zm0.9 1.8c-0.6-0.3-0.8-0.2-1.3 0.3q-0.9 1-0.2 1.7c0.2 0.2 0.4 0.7 0.5 1.3 0.4 2.3 5.4 6 10.3 7.6 4.8 1.5 11.1 1.1 11.1-0.7 0-0.5-1.3-1.7-2.8-2.7-0.6-0.4-1.2-0.8-1.2-0.9 0-0.2-1.1-0.7-2.5-1.3-1.4-0.6-3.2-1.3-4.1-1.7-4.8-2.2-8.7-3.7-8.9-3.5-0.1 0.1-0.5 0-0.9-0.1zm20.8 9c-0.4-0.4-0.4-0.4-0.1 0.3 0.2 0.4 0.4 0.6 0.5 0.4 0-0.2-0.1-0.5-0.4-0.7z"/>
		<path id="Layer" class="s0" d="m218.8 127.3c-1.2 0.9-2.6 2.1-3.2 2.7-0.7 0.6-1.6 1.5-2.1 1.9-0.6 0.5-0.8 0.8-0.6 0.9 0.2 0.1 0.3 0.7 0.3 1.6 0 1.6 0.8 6.5 1 6.8 0.1 0.1 1.5-3 3.1-6.9 1.7-3.9 3.1-7.4 3.3-7.9 0.2-0.4 0.3-0.8 0.3-0.8-0.1 0-1 0.8-2.1 1.7z"/>
	</g>
</svg>